<?xml version="1.0" encoding="utf-8"?>
<!-- Generator: Adobe Illustrator 18.0.0, SVG Export Plug-In . SVG Version: 6.00 Build 0)  -->
<!DOCTYPE svg PUBLIC "-//W3C//DTD SVG 1.1//EN" "http://www.w3.org/Graphics/SVG/1.1/DTD/svg11.dtd">
<svg version="1.1" id="图层_1" xmlns="http://www.w3.org/2000/svg" xmlns:xlink="http://www.w3.org/1999/xlink" x="0px" y="0px"
	 viewBox="0 0 48 48" enable-background="new 0 0 48 48" xml:space="preserve">
<title>bold</title>
<path d="M19.4,43.1c1.6,0.7,3,1,4.3,1c7.7,0,11.5-3.4,11.5-10.3c0-2.4-0.4-4.2-1.3-5.5c-0.5-0.9-1.2-1.7-1.8-2.2
	c-0.7-0.7-1.4-1-2.1-1.4c-0.7-0.4-1.4-0.7-2.5-0.8c-0.9-0.1-1.8-0.3-2.6-0.3s-1.7,0-2.9,0c-1.4,0-2.5,0.1-3.1,0.3c0,1,0,2.7,0,4.8
	c0,2.2,0,3.8,0,4.8c0,0.1,0,0.9,0,2.1s0,2.2,0,3s0,1.6,0.1,2.6C19.2,42,19.3,42.7,19.4,43.1L19.4,43.1z M19,20.3
	c0.9,0.1,2,0.3,3.4,0.3c1.7,0,3.1-0.1,4.4-0.4c1.3-0.3,2.4-0.8,3.4-1.3c1-0.7,1.7-1.6,2.2-2.7c0.5-1.2,0.8-2.6,0.8-4.3
	c0-1.4-0.3-2.7-0.9-3.8c-0.7-1-1.4-2-2.5-2.5c-1-0.7-2.1-1-3.3-1.3c-1.2-0.3-2.5-0.4-3.8-0.4c-1,0-2.4,0.1-3.9,0.4
	c0,1,0,2.6,0.1,4.6c0.1,2.1,0.1,3.7,0.1,4.7c0,0.5,0,1.3,0,2.5c0,1,0,1.8,0,2.5C19,19.2,19,19.8,19,20.3L19,20.3z M2.5,47.5v-2.9
	c0.3-0.1,1.2-0.3,2.6-0.5c1.4-0.3,2.5-0.5,3.3-0.8c0.1-0.3,0.3-0.5,0.4-0.8c0.1-0.3,0.3-0.7,0.3-1s0.1-0.7,0.1-1
	c0-0.3,0.1-0.7,0.1-1.2s0-0.8,0-1v-2c0-20-0.3-30.5-0.7-31.3C8.5,4.8,8.3,4.7,7.9,4.5S7.2,4.3,6.6,4.2C6.1,4,5.6,4,5.1,3.9
	C4.6,3.8,2.6,3.6,2.6,3.6V0.5H13c0,0,8.7,0,11.4,0c0.5,0,1.2,0,2.1,0c0.9,0,1.6,0,2.1,0c1.4,0,2.9,0.1,4.2,0.4
	c1.3,0.3,2.6,0.7,3.9,1.3C38,2.8,39,3.5,39.9,4.4c0.9,0.9,1.7,2,2.2,3.1s0.9,2.7,0.9,4.2c0,1-0.1,2.1-0.5,2.9
	c-0.4,0.8-0.8,1.6-1.2,2.2c-0.4,0.7-1.2,1.2-2,1.7c-0.9,0.7-1.6,1-2.2,1.4c-0.7,0.4-1.4,0.8-2.6,1.2c3.1,0.7,5.7,2.1,7.8,4
	c2.1,2,3.1,4.6,3.1,7.6c0,2.1-0.4,3.9-1,5.5c-0.7,1.6-1.7,3-2.9,4c-1.2,1-2.6,2-4.2,2.6c-1.6,0.7-3.3,1.2-5,1.4
	c-1.7,0.3-3.5,0.4-5.4,0.4c-0.9,0-2.2,0-4-0.1c-1.8,0-3.1-0.1-4-0.1c-2.2,0-5.4,0.1-9.4,0.4C5.5,47.4,3.1,47.5,2.5,47.5L2.5,47.5z"
	/>
</svg>
